<svg width="27" height="50" viewBox="0 0 27 30" fill="none" xmlns="http://www.w3.org/2000/svg">
<path d="M24.617 21.6267H22.0878C21.4808 21.6267 20.8738 21.2671 20.5703 20.7021L12.3252 5.39384L5.49638 18.1849H10.9594C11.9205 18.1849 12.6793 18.9041 12.6793 19.8801C12.6793 20.8562 11.9711 21.6267 11.01 21.6267H10.9594H2.66369C1.7026 21.6267 0.943848 20.8562 0.943848 19.8801C0.943848 19.5719 0.994431 19.3151 1.14618 19.0582L10.8582 0.924658C11.1617 0.359589 11.7182 0 12.3252 0C12.9322 0 13.5392 0.359589 13.7921 0.924658L22.8466 17.8767V1.74658C22.8466 0.770548 23.5547 0 24.5158 0C25.4769 0 26.2357 0.719178 26.2357 1.69521V1.74658V19.8801C26.2863 20.8562 25.5275 21.6267 24.617 21.6267Z" fill="white"/>
<path d="M5.73059 30V29.024H2.79674V24.0411H1.7345V29.9487H5.73059V30ZM11.5477 30V29.0754H8.71504V27.4829H11.2948V26.5583H8.71504V24.9658H11.5983V24.0411H7.65279V29.9487L11.5477 30ZM19.1353 30V24.0925H18.073V28.3048L15.1897 24.0925H13.7734V30H14.8356V25.5309L17.9718 30H19.1353ZM22.6255 29.0754V24.9658H23.789C24.8006 24.8631 25.7111 25.685 25.8123 26.7124C25.8123 26.8151 25.8123 26.9178 25.8123 27.0206C25.8629 28.048 25.1041 28.9726 24.0419 29.0754C23.9407 29.0754 23.8395 29.0754 23.789 29.0754H22.6255ZM23.789 30C25.5088 30 26.9252 28.9213 26.9252 27.072C26.9252 25.2226 25.5594 24.0925 23.8396 24.0925H21.5633V30H23.789Z" fill="white"/>
</svg>
