<svg width="26" height="26" viewBox="0 0 26 26" fill="none" xmlns="http://www.w3.org/2000/svg">
<mask id="mask0_2_12" style="mask-type:alpha" maskUnits="userSpaceOnUse" x="0" y="0" width="26" height="26">
<circle cx="12.9438" cy="13" r="12.8049" fill="#C4C4C4"/>
</mask>
<g mask="url(#mask0_2_12)">
<path d="M31.3644 27.2683V-0.53656L-6.44644 -0.53656V27.2683L31.3644 27.2683Z" fill="white"/>
<path d="M30.2391 0.1604H-5.47424V26.0897H30.2391V0.1604Z" fill="#2D3081"/>
<path d="M-5.09913 0.162537H-5.47424V0.934956V1.42771V2.02922L5.64593 9.67129L6.39838 10.1907L7.15304 10.7101L10.1983 12.8031L10.6223 13.0939L10.7155 13.1583L11.0462 13.3847L11.1372 13.449L11.5612 13.7398L12.8041 14.5921L13.2281 14.8851L13.3191 14.9473L13.652 15.1759L13.743 15.238L14.1647 15.531L14.4089 15.6975L14.9372 16.0593L15.6918 16.5787L29.5288 26.0919H30.2391V25.9809V24.3539V23.7568V23.4971V23.1576V22.8979L21.0433 16.5787L20.2886 16.0593L19.5339 15.5421L16.6929 13.5867L16.2689 13.2959L16.1779 13.2315L15.845 13.0051L15.754 12.9408L15.33 12.65L14.0871 11.7977L13.6631 11.5047L13.5721 11.4425L13.2414 11.2139L13.1482 11.1518L12.7242 10.8588L10.3515 9.22737L9.91644 8.92772L9.4814 8.62808L-2.83514 0.162537H-3.21469H-3.70744H-4.08256H-4.95486H-5.09913Z" fill="#E34554"/>
<path d="M11.9718 13.4224L11.5501 13.1339L11.4591 13.0695L11.0485 13.3869L11.1395 13.449L11.5612 13.7398L12.8042 14.5943L13.2148 14.2792L11.9718 13.4224ZM11.9718 13.4224L11.5501 13.1339L11.4591 13.0695L11.0485 13.3869L11.1395 13.449L11.5612 13.7398L12.8042 14.5943L13.2148 14.2792L11.9718 13.4224ZM11.9718 13.4224L11.5501 13.1339L11.4591 13.0695L11.0485 13.3869L11.1395 13.449L11.5612 13.7398L12.8042 14.5943L13.2148 14.2792L11.9718 13.4224ZM16.562 16.5787L15.8073 16.0593L15.0526 15.5421L14.5776 15.2136L14.1537 14.9228L14.0627 14.8607L13.7298 14.6387L13.641 14.5766L13.2148 14.288L11.9718 13.4313L11.5501 13.1427L11.4591 13.0784L11.1262 12.8564L11.0329 12.7943L10.6112 12.5035L8.02762 10.7278L7.27295 10.2084L6.51829 9.69126L-5.46753 1.44546V2.64404L4.78256 9.69126L5.53723 10.2084L6.29189 10.7278L9.79663 13.1383L10.2184 13.4291L10.3116 13.4912L10.6423 13.7132L10.7333 13.7753L11.1572 14.0683L12.4002 14.9228L12.8242 15.2114L12.9152 15.2735L13.2481 15.4955L13.3391 15.5577L13.7608 15.8484L14.4267 16.2923L14.8706 16.5898L15.3145 16.8916L28.6898 26.0874H30.2325V25.9742L16.562 16.5787ZM21.9156 16.5787L21.161 16.0593L20.4063 15.5421L17.1035 13.2715L16.6796 12.9785L16.5886 12.9163L16.2557 12.6944L16.1669 12.6322L15.7407 12.3392L14.5 11.4847L14.076 11.1939L13.985 11.1318L13.6521 10.9098L13.5588 10.8454L13.1371 10.5547L10.3538 8.64139L9.90983 8.34175L9.46591 8.0421L-1.96501 0.162537H-3.70739L9.48145 9.22958L9.92537 9.52701L10.3693 9.82887L12.3314 11.1762L12.7531 11.4669L12.8464 11.5313L13.1793 11.7533L13.2681 11.8154L13.692 12.1062L14.935 12.9607L15.3589 13.2515L15.4499 13.3136L15.7829 13.5356L15.8739 13.6L16.2956 13.8885L18.6639 15.5421L19.4186 16.0593L20.1732 16.5787L30.2325 23.4994V22.3008L21.9156 16.5787ZM11.9718 13.4224L11.5501 13.1339L11.4591 13.0695L11.0485 13.3869L11.1395 13.449L11.5612 13.7398L12.8042 14.5943L13.2148 14.2792L11.9718 13.4224ZM11.9718 13.4224L11.5501 13.1339L11.4591 13.0695L11.0485 13.3869L11.1395 13.449L11.5612 13.7398L12.8042 14.5943L13.2148 14.2792L11.9718 13.4224Z" fill="white"/>
<path d="M-5.09913 0.162537H-5.47424V0.934956V1.42771V2.02922V2.28447V2.62629V2.88598L4.39852 9.67129L5.15318 10.1907L5.90563 10.7101L9.61013 13.2582H9.61235L10.0341 13.5467L10.1251 13.6088L10.458 13.8375L10.549 13.8996L10.973 14.1926L12.2137 15.0449L12.6399 15.3379L12.7309 15.4001L13.0638 15.6287L13.1526 15.693L13.5765 15.9816L14.4089 16.5543L14.8439 16.8539L15.2812 17.1535L28.2814 26.0919H28.6565H29.1515H29.5288H30.2391V25.9809V24.3539V23.7568L19.7959 16.5787L19.0412 16.0593L18.2865 15.5421L16.1024 14.0394L15.6785 13.7487L15.5897 13.6865L15.2568 13.4557L15.1658 13.3935L14.7396 13.1028L13.4989 12.2482L13.0749 11.9575L12.9839 11.8953L12.651 11.6667L12.56 11.6046L12.1383 11.3138L10.3515 10.0841L9.91644 9.7867L9.4814 9.48706L-4.08256 0.162537H-4.95486H-5.09913Z" fill="#E34554"/>
<path d="M20.6682 16.5787L19.9135 16.0593L19.1588 15.5421L16.5153 13.7243L16.0914 13.4313L16.0004 13.3691L15.6674 13.1472L15.5764 13.085L15.1525 12.7943L13.9095 11.9397L13.4878 11.6489L13.3968 11.5868L13.0638 11.3648L12.9706 11.3027L12.5489 11.0097L10.3537 9.50259L9.90978 9.20073L9.46586 8.90108L-3.21247 0.162537H-4.95486L8.87989 9.6735L9.63455 10.1907L10.3537 10.6856L11.7276 11.629L12.1494 11.9197L12.2404 11.9841L12.5733 12.2061L12.6643 12.2682L13.0882 12.559L14.329 13.4135L14.7552 13.7043L14.8462 13.7664L15.1791 13.9884L15.2679 14.0505L15.6918 14.3435L17.4165 15.5288L18.1711 16.046L18.9258 16.5653L30.2457 24.3339V23.1354L20.6682 16.5787ZM15.3145 16.5787L14.8462 16.2546L14.4022 15.9572L13.9805 15.6686L13.5566 15.3756L13.4656 15.3135L13.1326 15.0915L13.0416 15.0294L12.6177 14.7364L11.3747 13.8819L10.9508 13.5911L10.862 13.5289L10.529 13.307L10.4358 13.2426L10.0141 12.9518L6.77127 10.7212L5.26194 9.6846L-5.47424 2.28669V3.48305L3.52844 9.6735L5.03777 10.7101L9.20173 13.5733L9.62345 13.8641L9.71445 13.9262L10.0474 14.1482L10.1384 14.2104L10.5623 14.5011L11.8031 15.3557L12.2293 15.6464L12.3203 15.7086L12.6532 15.9305L12.742 15.9927L13.1659 16.2835L14.4111 17.138L14.855 17.4377L15.299 17.7373L27.4268 26.0763H29.1692L15.3145 16.5787Z" fill="white"/>
<path d="M30.2391 0.162537V1.80282L20.0045 9.67129L19.332 10.1907L18.655 10.7101L16.1646 12.6256L15.754 12.9408L15.5764 13.0784L15.3433 13.2582L15.1658 13.3935L14.7552 13.7109L13.6387 14.5677L13.2281 14.8851L13.0505 15.0227L12.8174 15.2003L12.6399 15.3379L12.2293 15.6531L10.3515 17.0958L9.91644 17.431L9.4814 17.7662L-1.34358 26.0919H-5.47424V25.4748L6.09207 16.5787L7.44159 15.5421L9.62123 13.8619L10.0341 13.5467L10.2116 13.4113L10.4447 13.2293L10.6223 13.0939L11.0329 12.7787L12.1493 11.9197L12.56 11.6046L12.7375 11.4669L12.9706 11.2894L13.1482 11.1518L13.5588 10.8344L14.4089 10.1796L14.8439 9.84663L15.2812 9.51147L27.4357 0.162537H30.2391Z" fill="#E34554"/>
<path d="M19.201 9.6735L17.8515 10.7101L15.7407 12.3348L15.33 12.6566L15.1525 12.7943L14.9194 12.974L14.7418 13.1117L14.329 13.4268L13.2192 14.2858L12.8086 14.601L12.631 14.7364L12.3979 14.9184L12.2204 15.0516L11.8098 15.3623L10.3604 16.4721L9.91644 16.8095L9.47252 17.1424L-2.14263 26.0919H-0.53786L9.4814 18.3832L9.92531 18.0503L10.3692 17.7129L12.6687 15.9372L13.0794 15.6198L13.2569 15.4844L13.49 15.3046L13.6676 15.167L14.0782 14.8518L15.188 13.9928L15.5986 13.6777L15.7762 13.54L15.9981 13.3603L16.1757 13.2226L16.5863 12.9075L19.4563 10.7012L20.8058 9.66463L30.2324 2.41764V1.18355L19.201 9.6735ZM26.6344 0.162537L15.2812 8.89443L14.8373 9.23181L14.3934 9.56475L13.1415 10.5436L12.7309 10.8588L12.5533 10.9964L12.3203 11.1762L12.1427 11.3138L11.7321 11.629L10.6223 12.488L10.2094 12.8031L10.0341 12.9407L9.81212 13.1205L9.63455 13.2582L9.22614 13.5733L6.64032 15.5421L5.2908 16.5787L-5.47424 24.8644V26.0963L6.89335 16.5831L8.24286 15.5466L10.0452 14.1593L10.4558 13.8419L10.6334 13.7065L10.8686 13.5267L11.0462 13.3913L11.4568 13.0739L12.5666 12.2172L12.9773 11.902L13.157 11.7644L13.3901 11.5846L13.5677 11.447L13.9783 11.1318L14.5199 10.7145L15.8694 9.67794L28.2348 0.162537H26.6344Z" fill="white"/>
<path d="M30.239 0.162537V2.55082L20.9789 9.67129L19.6294 10.7101L16.6795 12.9785L16.2689 13.2959L16.0913 13.4313L15.856 13.6111L15.6785 13.7487L15.2678 14.0639L14.1536 14.9228L13.743 15.238L13.5654 15.3756L13.3301 15.5554L13.1526 15.693L12.7419 16.0082L10.3514 17.8461L9.9164 18.1812L9.48136 18.5164L-0.366986 26.0919H-5.30115L7.06866 16.5787L8.41596 15.5421L10.1384 14.217L10.549 13.8996L10.7266 13.762L10.9596 13.5844L11.1372 13.449L11.55 13.1316L12.6643 12.2749L13.0749 11.9575L13.2525 11.8221L13.4855 11.6423L13.6631 11.5047L14.0759 11.1895L14.6974 10.7101L16.0447 9.67129L28.4101 0.162537H30.239Z" fill="#E34554"/>
<path d="M12.6644 12.2749L11.5546 13.1339L11.9763 13.4224L13.0861 12.5656L12.6644 12.2749ZM12.6644 12.2749L11.5546 13.1339L11.9763 13.4224L13.0861 12.5656L12.6644 12.2749ZM20.1755 9.6735L18.8282 10.7101L16.249 12.6899L15.8384 13.0051L15.6608 13.1405L15.4389 13.3203L15.2613 13.4557L14.8462 13.7664L13.7364 14.6232L13.3258 14.9406L13.1482 15.0782L12.9152 15.2558L12.7376 15.3934L12.327 15.7086L10.3604 17.2223L9.9165 17.5575L9.47258 17.8927L-1.18148 26.0852H0.42551L9.47037 19.1268L9.91428 18.7916L10.3582 18.4587L13.1704 16.2923L13.5855 15.986L13.7631 15.8484L13.9983 15.6708L14.1759 15.5332L14.5865 15.2158L15.6963 14.3591L16.107 14.0417L16.2845 13.9041L16.5198 13.7265L16.6974 13.5889L17.108 13.2737L20.4374 10.7123L21.7847 9.67572L30.2325 3.16787V1.93377L20.1755 9.6735ZM12.6644 12.2749L11.5546 13.1339L11.9763 13.4224L13.0861 12.5656L12.6644 12.2749ZM12.6644 12.2749L11.5546 13.1339L11.9763 13.4224L13.0861 12.5656L12.6644 12.2749ZM27.6089 0.162537L15.2813 9.64687L14.8373 9.97981L14.3934 10.315L13.6343 10.8987L13.2237 11.2139L13.0461 11.3515L12.8131 11.5313L12.6355 11.6667L12.2404 11.9908L11.1306 12.8475L10.72 13.1649L10.5424 13.3025L10.3094 13.4801L10.1318 13.6177L9.71896 13.9329L7.617 15.5421L6.26083 16.5787L-5.48083 25.6102V26.0919H-4.50421L7.8656 16.5787L9.21289 15.5421L10.5446 14.5078L10.9553 14.1926L11.1328 14.0572L11.3659 13.8752L11.5435 13.7398L11.9541 13.4224L13.0639 12.5656L13.4745 12.2505L13.6521 12.1128L13.8851 11.9331L14.0627 11.7977L14.4756 11.4803L15.4766 10.7101L16.8239 9.6735L29.1893 0.162537H27.6089Z" fill="white"/>
<path d="M30.2391 10.1907V16.0593H14.8439V26.0919H9.91644V16.0593H-5.47424V10.1907H9.91644V0.162537H14.8439V10.1907H30.2391Z" fill="#E34554"/>
<path d="M14.4111 15.5421V26.0919H15.2812V16.5787H30.2324V15.5421H14.4111ZM15.2812 9.6735V0.162537H14.4111V10.7101H30.2324V9.6735H15.2812ZM9.4814 0.162537V9.6735H-5.47424V10.7101H10.3537V0.162537H9.4814ZM-5.47424 15.5421V16.5787H9.4814V26.0919H10.3537V15.5421H-5.47424Z" fill="white"/>
</g>
</svg>
