<svg width="21" height="20" viewBox="0 0 21 20" fill="none" xmlns="http://www.w3.org/2000/svg">
<path d="M20.5447 10.2208C20.5447 9.39959 20.4793 8.79759 20.3321 8.17596H10.9423V11.8861H16.4518C16.3406 12.8087 15.7419 14.1959 14.407 15.1316L14.3874 15.256L17.3548 17.556L17.5609 17.5756C19.4553 15.8318 20.5447 13.2668 20.5447 10.2208Z" fill="#4285F4"/>
<path d="M10.9422 19.9997C13.6413 19.9997 15.9086 19.1098 17.5641 17.5786L14.4102 15.1346C13.5661 15.7236 12.4341 16.1358 10.9422 16.1358C8.29861 16.1358 6.05421 14.392 5.25264 11.9807L5.13486 11.9905L2.04964 14.3789L2.01038 14.4901C3.65605 17.7553 7.03246 19.9997 10.9422 19.9997Z" fill="#34A853"/>
<path d="M5.25597 11.9776C5.04331 11.356 4.92225 10.6886 4.92225 10.0015C4.92225 9.31116 5.0433 8.647 5.24288 8.02538L5.23634 7.89123L2.11185 5.46362L2.01043 5.5127C1.33318 6.86719 0.943848 8.38854 0.943848 9.99822C0.943848 11.6079 1.33318 13.1325 2.01043 14.487L5.25597 11.9776Z" fill="#FBBC05"/>
<path d="M10.9422 3.86717C12.8201 3.86717 14.0863 4.67855 14.8093 5.35579L17.6328 2.60101C15.8988 0.988057 13.6446 0 10.9422 0C7.03246 0 3.65605 2.2444 2.01038 5.50957L5.24283 8.02224C6.05421 5.61099 8.29861 3.86717 10.9422 3.86717Z" fill="#EB4335"/>
</svg>
